HIERARCHY
ROOT Hips
{
    OFFSET 0.000000 0.000000 0.000000
    CHANNELS 6 Xposition Yposition Zposition Zrotation Xrotation Yrotation
    JOINT Spine
    {
        OFFSET -0.000000 14.517291 0.000000
        CHANNELS 3 Zrotation Xrotation Yrotation
        JOINT Spine1
        {
            OFFSET -0.000000 37.558300 0.000000
            CHANNELS 3 Zrotation Xrotation Yrotation
            JOINT Neck
            {
                OFFSET -0.000000 37.404057 3.400369
                CHANNELS 3 Zrotation Xrotation Yrotation
                JOINT Head
                {
                    OFFSET -0.000000 24.785618 -3.540803
                    CHANNELS 3 Zrotation Xrotation Yrotation
                    End Site
                    {
                        OFFSET -0.000000 35.408028 0.000000
                    }
                }
            }
            JOINT LeftShoulder
            {
                OFFSET 6.992933 33.973492 -0.192664
                CHANNELS 3 Zrotation Xrotation Yrotation
                JOINT LeftArm
                {
                    OFFSET 21.527611 0.000000 0.000000
                    CHANNELS 3 Zrotation Xrotation Yrotation
                    JOINT LeftForeArm
                    {
                        OFFSET 56.353916 0.000000 0.000000
                        CHANNELS 3 Zrotation Xrotation Yrotation
                        JOINT LeftHand
                        {
                            OFFSET 47.774071 0.000000 0.000000
                            CHANNELS 3 Zrotation Xrotation Yrotation
                            End Site
                            {
                                OFFSET 26.556021 0.000000 0.000000
                            }
                        }
                    }
                }
            }
            JOINT RightShoulder
            {
                OFFSET -7.065357 33.973492 -0.192664
                CHANNELS 3 Zrotation Xrotation Yrotation
                JOINT RightArm
                {
                    OFFSET -21.527611 0.000000 0.000000
                    CHANNELS 3 Zrotation Xrotation Yrotation
                    JOINT RightForeArm
                    {
                        OFFSET -56.353916 0.000000 0.000000
                        CHANNELS 3 Zrotation Xrotation Yrotation
                        JOINT RightHand
                        {
                            OFFSET -47.774071 0.000000 0.000000
                            CHANNELS 3 Zrotation Xrotation Yrotation
                            End Site
                            {
                                OFFSET -26.556021 0.000000 0.000000
                            }
                        }
                    }
                }
            }
        }
    }
    JOINT LeftUpLeg
    {
        OFFSET 17.704014 0.000000 0.000000
        CHANNELS 3 Zrotation Xrotation Yrotation
        JOINT LeftLeg
        {
            OFFSET -0.000000 -81.181816 0.000000
            CHANNELS 3 Zrotation Xrotation Yrotation
            JOINT LeftFoot
            {
                OFFSET -0.000000 -62.821102 0.000000
                CHANNELS 3 Zrotation Xrotation Yrotation
                JOINT LeftToeBase
                {
                    OFFSET -0.000000 -11.507608 26.556021
                    CHANNELS 3 Zrotation Xrotation Yrotation
                    End Site
                    {
                        OFFSET -0.000000 0.000000 7.081605
                    }
                }
            }
        }
    }
    JOINT RightUpLeg
    {
        OFFSET -17.704014 0.000000 0.000000
        CHANNELS 3 Zrotation Xrotation Yrotation
        JOINT RightLeg
        {
            OFFSET -0.000000 -81.181816 0.000000
            CHANNELS 3 Zrotation Xrotation Yrotation
            JOINT RightFoot
            {
                OFFSET -0.000000 -62.821102 0.000000
                CHANNELS 3 Zrotation Xrotation Yrotation
                JOINT RightToeBase
                {
                    OFFSET -0.000000 -11.507608 26.556021
                    CHANNELS 3 Zrotation Xrotation Yrotation
                    End Site
                    {
                        OFFSET -0.000000 0.000000 7.081605
                    }
                }
            }
        }
    }
}
MOTION
Frames:    13
Frame Time:    0.008333
22.560699    146.481415    -129.866241    0.425485    -0.168866    41.603848    -0.231567    2.557533    -2.308908    -5.524165    0.555935    -0.743714    3.606611    2.116288    -17.969513    12.626034    -0.328750    -17.408165    5.411485    8.108424    -19.312510    -27.446609    21.577082    -52.704967    -2.610686    -7.860404    -105.655205    6.223327    -11.852808    -11.162728    -7.543031    0.257289    -3.276871    23.334082    -19.076950    46.558147    -23.712900    -20.059143    63.594193    -0.782048    -5.720655    35.157330    25.635710    -1.288018    4.145087    -13.559911    37.316235    -16.273781    -9.773153    -32.371346    35.455505    0.000000    0.000000    0.000000    -32.106857    -22.708227    -20.041151    13.245193    25.632860    -14.191105    5.874067    8.506948    -16.198444    0.000000    0.000000    0.000000    
22.697680    146.503296    -130.139832    0.348865    -0.283004    41.564480    -0.246234    2.536111    -2.291380    -5.454891    0.593087    -0.736569    3.592385    2.166485    -17.998550    12.674945    -0.328239    -17.428360    5.429885    8.128663    -19.277538    -27.464390    21.577812    -52.696442    -2.512461    -7.924254    -105.609085    6.070658    -11.765968    -11.055017    -7.529544    0.222526    -3.246040    23.323719    -18.987806    46.487370    -23.745884    -20.077490    63.557041    -0.681783    -5.698494    35.278522    25.640787    -1.278457    4.105260    -13.574037    37.359962    -16.255369    -9.500751    -32.522839    35.534294    0.000000    0.000000    0.000000    -31.883984    -22.517521    -20.005920    13.005074    25.100668    -14.250127    5.919012    8.883258    -16.050129    0.000000    0.000000    0.000000    
22.812420    146.534088    -130.378433    0.262576    -0.380318    41.492207    -0.264680    2.494307    -2.254767    -5.410344    0.623207    -0.723309    3.666759    2.209337    -17.989904    12.623439    -0.355361    -17.431818    5.434652    8.143861    -19.244432    -27.527933    21.500029    -52.649776    -2.661422    -7.699615    -105.575241    6.176221    -11.746543    -11.093199    -7.496014    0.264083    -3.289291    23.418703    -19.009129    46.571087    -23.642776    -19.979918    63.619884    -0.738937    -5.662515    35.303387    25.655409    -1.244295    4.090548    -13.558212    37.357903    -16.323046    -9.279952    -32.673370    35.652248    0.000000    0.000000    0.000000    -31.658161    -22.374384    -20.011122    12.764998    24.630461    -14.158316    5.977396    9.219001    -15.986792    0.000000    0.000000    0.000000    
22.932196    146.564087    -130.611160    0.199395    -0.482878    41.404675    -0.305910    2.470787    -2.203864    -5.300072    0.644645    -0.706183    3.569582    2.248036    -18.013994    12.712430    -0.292951    -17.437599    5.360509    8.171185    -19.198750    -27.465471    21.554823    -52.633839    -2.673807    -7.715083    -105.563484    6.210091    -11.780842    -11.104182    -7.514277    0.291017    -3.269475    23.439264    -18.979210    46.554253    -23.633646    -19.956249    63.633350    -0.777410    -5.651443    35.285900    25.650990    -1.170194    4.058957    -13.554541    37.314510    -16.367443    -8.761601    -32.720314    35.853683    0.000000    0.000000    0.000000    -31.446497    -22.230968    -19.924183    12.569848    24.156546    -14.245613    6.030406    9.582738    -15.855246    0.000000    0.000000    0.000000    
23.038431    146.597504    -130.805161    0.130516    -0.578544    41.345814    -0.329517    2.407292    -2.187518    -5.279964    0.712806    -0.697888    3.655463    2.243287    -17.987440    12.668741    -0.253421    -17.431492    5.401704    8.168122    -19.161957    -27.565912    21.496861    -52.604340    -3.041677    -7.344435    -105.601280    6.941077    -11.958619    -11.044398    -7.460918    0.327300    -3.269533    23.458853    -18.912853    46.584538    -23.668768    -19.981703    63.598991    -0.743855    -5.655022    35.308605    25.656345    -1.096850    4.008620    -13.532987    37.246784    -16.465914    -8.507846    -32.843208    36.015850    0.000000    0.000000    0.000000    -31.225395    -22.067274    -19.954437    12.317885    23.703005    -14.157723    6.097314    9.888611    -15.768027    0.000000    0.000000    0.000000    
23.124168    146.631241    -130.980316    0.048202    -0.669582    41.256077    -0.365067    2.348414    -2.112048    -5.193151    0.759540    -0.671323    3.600470    2.186704    -18.021681    12.686215    -0.100174    -17.476534    5.369379    8.169413    -19.162472    -27.603037    21.498051    -52.543804    -3.086450    -7.245260    -105.607689    7.048725    -11.920499    -10.898044    -7.473841    0.342181    -3.310376    23.473089    -18.797703    46.570000    -23.708984    -20.056986    63.604843    -0.640153    -5.673635    35.299492    25.682562    -1.006638    4.013656    -13.519921    37.155540    -16.550943    -8.269623    -32.963120    36.173557    0.000000    0.000000    0.000000    -30.994978    -21.942825    -19.885111    12.130280    23.255039    -14.207797    6.144553    10.203226    -15.653561    0.000000    0.000000    0.000000    
23.208158    146.666855    -131.138565    -0.028854    -0.762625    41.176815    -0.379332    2.309664    -2.079658    -5.168579    0.748834    -0.661318    3.634743    2.194947    -17.994940    12.695048    -0.001384    -17.462320    5.382536    8.196622    -19.118406    -27.650345    21.533314    -52.472733    -2.868357    -7.337891    -105.574997    6.372484    -11.670609    -11.007796    -7.422469    0.392062    -3.295588    23.471432    -18.715717    46.585846    -23.733969    -20.085178    63.572681    -0.613458    -5.688201    35.310570    25.705355    -0.899385    4.038250    -13.494178    37.041023    -16.624245    -8.053741    -33.077732    36.311634    0.000000    0.000000    0.000000    -30.774248    -21.811983    -19.888523    11.924801    22.845100    -14.160221    6.212095    10.495186    -15.568830    0.000000    0.000000    0.000000    
23.285755    146.701691    -131.276230    -0.083785    -0.845545    41.121239    -0.429800    2.268513    -2.038714    -5.101131    0.771614    -0.647441    3.617532    2.144958    -18.017191    12.678388    0.144717    -17.503395    5.370101    8.195415    -19.099710    -27.679953    21.592712    -52.419571    -2.825072    -7.331748    -105.627769    6.152781    -11.590933    -10.999852    -7.421032    0.421164    -3.307846    23.537668    -18.736946    46.585304    -23.629427    -20.024265    63.660301    -0.615507    -5.666721    35.259949    25.705385    -0.782582    4.059248    -13.441574    36.905872    -16.706127    -7.833827    -33.157448    36.428688    0.000000    0.000000    0.000000    -30.576633    -21.657188    -19.870384    11.740049    22.436956    -14.133848    6.267707    10.740797    -15.498150    0.000000    0.000000    0.000000    
23.363739    146.740234    -131.392319    -0.131417    -0.939287    41.086994    -0.417024    2.218029    -2.013155    -5.144786    0.817173    -0.636424    3.637056    2.104024    -18.011990    12.723548    0.273761    -17.509956    5.391906    8.202803    -19.086262    -27.664049    21.633707    -52.408852    -2.942668    -7.230372    -105.657913    6.397846    -11.668138    -10.995820    -7.363927    0.450929    -3.373416    23.580681    -18.670284    46.651398    -23.642406    -20.022722    63.655430    -0.580743    -5.646752    35.230148    25.710901    -0.653036    4.058526    -13.383008    36.745636    -16.763283    -7.663326    -33.235298    36.503220    0.000000    0.000000    0.000000    -30.392422    -21.481392    -19.896631    11.567606    22.068819    -14.071938    6.328929    10.961583    -15.416605    0.000000    0.000000    0.000000    
23.424152    146.776627    -131.499023    -0.195889    -1.026640    41.050365    -0.450643    2.165186    -1.999009    -5.069943    0.834141    -0.631718    3.606270    2.072291    -17.992897    12.718630    0.400829    -17.501610    5.347988    8.198947    -19.086781    -27.657970    21.744425    -52.340229    -2.868681    -7.316835    -105.702530    6.212917    -11.643180    -10.992164    -7.357084    0.448363    -3.340784    23.542969    -18.611528    46.584538    -23.620573    -20.026058    63.665771    -0.512033    -5.640281    35.288345    25.734266    -0.538811    4.075298    -13.315707    36.592545    -16.810129    -7.783906    -33.394218    36.468842    0.000000    0.000000    0.000000    -30.206118    -21.335369    -19.880070    11.434790    21.717733    -14.046640    6.383807    11.182981    -15.381928    0.000000    0.000000    0.000000    
23.473909    146.808273    -131.588242    -0.254962    -1.109202    41.024490    -0.467531    2.138674    -2.010986    -5.050775    0.808885    -0.637004    3.649753    2.109154    -17.981102    12.706376    0.448660    -17.500635    5.330394    8.224020    -19.024506    -27.683218    21.775280    -52.317276    -2.895777    -7.224224    -105.749474    6.203220    -11.589082    -10.992097    -7.342188    0.525189    -3.319686    23.583231    -18.612236    46.599987    -23.595413    -20.004524    63.708500    -0.552057    -5.633560    35.174206    25.764727    -0.442245    4.096641    -13.237043    36.451534    -16.872103    -7.422001    -33.350811    36.545574    0.000000    0.000000    0.000000    -30.036343    -21.196735    -19.852560    11.319020    21.397285    -14.047143    6.460417    11.363023    -15.346122    0.000000    0.000000    0.000000    
23.511406    146.838028    -131.665283    -0.306458    -1.189990    41.008987    -0.472183    2.122022    -2.023396    -5.050704    0.794735    -0.641880    3.610092    2.061420    -17.980389    12.773792    0.586405    -17.502560    5.337844    8.236571    -18.985668    -27.695438    21.789791    -52.316654    -3.137844    -6.993884    -105.845711    6.791644    -11.737935    -10.986043    -7.321610    0.509915    -3.314564    23.584251    -18.526396    46.582718    -23.609644    -20.017372    63.705215    -0.538020    -5.634438    35.210129    25.800697    -0.351264    4.087444    -13.175216    36.331764    -16.955099    -7.584351    -33.491276    36.516178    0.000000    0.000000    0.000000    -29.861307    -21.055986    -19.926250    11.150434    21.101879    -13.948034    6.498238    11.542428    -15.295836    0.000000    0.000000    0.000000    
23.536848    146.870590    -131.726486    -0.360568    -1.268620    40.990208    -0.526942    2.082557    -2.012840    -4.964477    0.800576    -0.638983    3.600454    2.076621    -17.976467    12.784682    0.615521    -17.498463    5.305431    8.243270    -19.003128    -27.706417    21.816826    -52.278271    -3.116236    -6.983743    -105.900673    6.737970    -11.700657    -11.018494    -7.351378    0.514347    -3.312655    23.611673    -18.529343    46.546616    -23.548176    -19.948130    63.741894    -0.537113    -5.590544    35.200806    25.855892    -0.283802    4.072911    -13.131577    36.239113    -17.042732    -7.235445    -33.428768    36.635502    0.000000    0.000000    0.000000    -29.687057    -20.940149    -19.914377    11.021490    20.839413    -13.943073    6.566275    11.695435    -15.264582    0.000000    0.000000    0.000000    
